<svg xmlns="http://www.w3.org/2000/svg"
 xmlns:xlink="http://www.w3.org/1999/xlink"
 width="22px" height="28px"  viewBox="0 0 22 28">
<path fill-rule="evenodd"  fill="#ffffff"
 d="M20.361084,7.8082275 C20.361084,7.8082275 16.861145,13.870483 16.861145,13.870483 C16.308716,14.826904 15.085632,15.154785 14.129028,14.602417 C14.129028,14.602417 13.2630005,14.102417 13.2630005,14.102417 C13.2630005,14.102417 14.263062,12.370361 14.263062,12.370361 C14.263062,12.370361 14.263062,12.370361 14.263062,12.370361 C14.741333,12.646484 15.352844,12.482544 15.628967,12.004395 C15.628967,12.004395 18.128967,7.6743164 18.128967,7.6743164 C18.405212,7.196045 18.241272,6.5843506 17.763062,6.3082275 C17.763062,6.3082275 14.298828,4.3082275 14.298828,4.3082275 C13.820618,4.0321045 13.209045,4.196045 12.932922,4.6743164 C12.932922,4.6743164 10.432739,9.004272 10.432739,9.004272 C10.156738,9.482666 10.320496,10.094238 10.79895,10.370483 C10.79895,10.370483 9.798889,12.102417 9.798889,12.102417 C9.798889,12.102417 8.9328,11.602417 8.9328,11.602417 C7.9761963,11.050171 7.6486816,9.826904 8.200806,8.870483 C8.200806,8.870483 11.700867,2.8081055 11.700867,2.8081055 C12.253174,1.8516846 13.476196,1.5239258 14.432861,2.0761719 C14.432861,2.0761719 19.62909,5.076172 19.62909,5.076172 C20.58551,5.62854 20.91333,6.8515625 20.361084,7.8082275 ZM8.530945,18.298584 C8.052673,18.02246 7.888733,17.410767 8.165039,16.932495 C8.165039,16.932495 12.164917,10.004395 12.164917,10.004395 C12.440979,9.526123 13.052673,9.362305 13.530945,9.638306 C14.009094,9.914551 14.173096,10.526123 13.896973,11.004395 C13.896973,11.004395 9.897034,17.932617 9.897034,17.932617 C9.620911,18.41101 9.009216,18.57483 8.530945,18.298584 ZM7.798828,15.566528 C7.798828,15.566528 7.798828,15.566528 7.798828,15.566528 C7.3206177,15.290405 6.7090454,15.454346 6.4328613,15.932617 C6.4328613,15.932617 3.9329224,20.262817 3.9329224,20.262817 C3.6567993,20.741089 3.8206177,21.35254 4.29895,21.628662 C4.29895,21.628662 7.7630615,23.628662 7.7630615,23.628662 C8.241272,23.904907 8.852783,23.741089 9.128967,23.262695 C9.128967,23.262695 11.629028,18.932495 11.629028,18.932495 C11.905273,18.454224 11.741394,17.842651 11.263062,17.56665 C11.263062,17.56665 11.262939,17.56665 11.262939,17.56665 C11.262939,17.56665 12.2630005,15.834473 12.2630005,15.834473 C12.2630005,15.834473 13.129028,16.334473 13.129028,16.334473 C14.085632,16.886719 14.41333,18.109863 13.861145,19.066528 C13.861145,19.066528 10.361084,25.128784 10.361084,25.128784 C9.808777,26.085327 8.585693,26.413208 7.6290283,25.860718 C7.6290283,25.860718 2.4329224,22.86084 2.4329224,22.86084 C1.4763794,22.308594 1.1485596,21.085327 1.7008057,20.128784 C1.7008057,20.128784 5.2008057,14.06665 5.2008057,14.06665 C5.7530518,13.109863 6.9761353,12.782227 7.9328003,13.334473 C7.9328003,13.334473 8.798889,13.834473 8.798889,13.834473 C8.798889,13.834473 7.798828,15.566528 7.798828,15.566528 Z"/>
</svg>