<svg xmlns="http://www.w3.org/2000/svg"
 xmlns:xlink="http://www.w3.org/1999/xlink"
 width="37px" height="27px"  viewBox="0 0 37 27">
<path fill-rule="evenodd"  fill="#ffffff"
 d="M1.1617432,13.483154 C1.1617432,13.483154 7.761963,1.824585 18.324524,1.824585 C28.324524,1.824585 35.80481,13.483154 35.80481,13.483154 C35.80481,13.483154 28.262024,25.141724 18.324524,25.141724 C7.699463,25.141724 1.1617432,13.483154 1.1617432,13.483154 C1.1617432,13.483154 1.1617432,13.483154 1.1617432,13.483154 ZM18.418152,8.25708 C21.311401,8.25708 23.65686,10.602539 23.65686,13.495972 C23.65686,16.389282 21.311401,18.73462 18.418152,18.73462 C15.524719,18.73462 13.179382,16.389282 13.179382,13.495972 C13.179382,10.602539 15.524719,8.25708 18.418152,8.25708 ZM18.44989,10.877441 C19.890076,10.877441 21.057068,12.0448 21.057068,13.484741 C21.057068,14.924805 19.890076,16.092041 18.44989,16.092041 C17.009888,16.092041 15.842651,14.924805 15.842651,13.484741 C15.842651,12.0448 17.009888,10.877441 18.44989,10.877441 Z"/>
</svg>